<svg xmlns="http://www.w3.org/2000/svg" xmlns:xlink="http://www.w3.org/1999/xlink" viewBox="0 0 350 350" width="350"
    height="350" preserveAspectRatio="xMidYMid meet"
    style="width: 100%; height: 100%; transform: translate3d(0px, 0px, 0px); content-visibility: visible;">
    <defs>
        <clipPath id="__lottie_element_522">
            <rect width="350" height="350" x="0" y="0"></rect>
        </clipPath>
        <symbol id="__lottie_element_527">
            <g>
                <g transform="matrix(0.9209057092666626,-0.38978537917137146,0.38978537917137146,0.9209057092666626,-46.70207214355469,117.19502258300781)"
                    opacity="1" style="display: block;">
                    <path fill="rgb(255,0,0)" fill-opacity=""
                        d=" M303.14,164.4 C303.14,164.4 303.14,182.94 303.14,182.94 C303.14,182.94 294.43,182.94 294.43,182.94 C293.11,187.07 290.92,190.91 287.95,194.17 C287.95,194.17 292.33,201.73 292.33,201.73 C292.33,201.73 276.26,210.98 276.26,210.98 C276.26,210.98 271.93,203.46 271.93,203.46 C267.59,204.37 263.17,204.37 258.96,203.42 C258.96,203.42 254.59,210.98 254.59,210.98 C254.59,210.98 238.57,201.69 238.57,201.69 C238.57,201.69 242.9,194.17 242.9,194.17 C241.46,192.61 240.18,190.83 239.06,188.93 C237.95,186.99 237.08,184.97 236.42,182.94 C236.42,182.94 227.71,182.94 227.71,182.94 C227.71,182.94 227.71,164.4 227.71,164.4 C227.71,164.4 236.42,164.4 236.42,164.4 C237.74,160.32 239.93,156.48 242.9,153.17 C242.9,153.17 238.52,145.66 238.52,145.66 C238.52,145.66 254.59,136.37 254.59,136.37 C254.59,136.37 258.96,143.92 258.96,143.92 C263.26,142.97 267.68,143.01 271.89,143.92 C271.89,143.92 276.26,136.41 276.26,136.41 C276.26,136.41 292.33,145.66 292.33,145.66 C292.33,145.66 287.95,153.21 287.95,153.21 C289.39,154.78 290.67,156.52 291.79,158.46 C292.9,160.4 293.77,162.38 294.43,164.45 C294.43,164.45 303.14,164.4 303.14,164.4z M274.37,168.52 C277.22,173.47 275.53,179.77 270.59,182.62 C265.66,185.47 259.34,183.79 256.49,178.85 C253.64,173.91 255.33,167.59 260.27,164.75 C265.21,161.89 271.52,163.59 274.37,168.52z">
                    </path>
                    <g opacity="1" transform="matrix(1,0,0,1,265.42401123046875,173.6739959716797)">
                        <g opacity="1" transform="matrix(1,0,0,1,0,0)">
                            <path stroke-linecap="round" stroke-linejoin="round" fill-opacity="0" stroke="#c80968""
                                stroke-opacity=" 1" stroke-width="7.5"
                                d=" M37.71900177001953,-9.270000457763672 C37.71900177001953,-9.270000457763672 37.71900177001953,9.270000457763672 37.71900177001953,9.270000457763672 C37.71900177001953,9.270000457763672 29.006000518798828,9.270000457763672 29.006000518798828,9.270000457763672 C27.684999465942383,13.39900016784668 25.496999740600586,17.23900032043457 22.52400016784668,20.500999450683594 C22.52400016784668,20.500999450683594 26.900999069213867,28.05699920654297 26.900999069213867,28.05699920654297 C26.900999069213867,28.05699920654297 10.83899974822998,37.305999755859375 10.83899974822998,37.305999755859375 C10.83899974822998,37.305999755859375 6.502999782562256,29.791000366210938 6.502999782562256,29.791000366210938 C2.1679999828338623,30.700000762939453 -2.25,30.700000762939453 -6.461999893188477,29.75 C-6.461999893188477,29.75 -10.83899974822998,37.305999755859375 -10.83899974822998,37.305999755859375 C-10.83899974822998,37.305999755859375 -26.858999252319336,28.016000747680664 -26.858999252319336,28.016000747680664 C-26.858999252319336,28.016000747680664 -22.52400016784668,20.500999450683594 -22.52400016784668,20.500999450683594 C-23.9689998626709,18.93199920654297 -25.249000549316406,17.1560001373291 -26.36400032043457,15.256999969482422 C-27.479000091552734,13.315999984741211 -28.344999313354492,11.293000221252441 -29.006000518798828,9.270000457763672 C-29.006000518798828,9.270000457763672 -37.71900177001953,9.270000457763672 -37.71900177001953,9.270000457763672 C-37.71900177001953,9.270000457763672 -37.71900177001953,-9.270000457763672 -37.71900177001953,-9.270000457763672 C-37.71900177001953,-9.270000457763672 -29.006000518798828,-9.270000457763672 -29.006000518798828,-9.270000457763672 C-27.684999465942383,-13.357999801635742 -25.496999740600586,-17.197999954223633 -22.52400016784668,-20.500999450683594 C-22.52400016784668,-20.500999450683594 -26.900999069213867,-28.014999389648438 -26.900999069213867,-28.014999389648438 C-26.900999069213867,-28.014999389648438 -10.83899974822998,-37.305999755859375 -10.83899974822998,-37.305999755859375 C-10.83899974822998,-37.305999755859375 -6.461999893188477,-29.75 -6.461999893188477,-29.75 C-2.1679999828338623,-30.700000762939453 2.250999927520752,-30.659000396728516 6.461999893188477,-29.75 C6.461999893188477,-29.75 10.83899974822998,-37.263999938964844 10.83899974822998,-37.263999938964844 C10.83899974822998,-37.263999938964844 26.900999069213867,-28.016000747680664 26.900999069213867,-28.016000747680664 C26.900999069213867,-28.016000747680664 22.52400016784668,-20.458999633789062 22.52400016784668,-20.458999633789062 C23.9689998626709,-18.889999389648438 25.249000549316406,-17.1560001373291 26.36400032043457,-15.21500015258789 C27.479000091552734,-13.27400016784668 28.344999313354492,-11.293000221252441 29.006000518798828,-9.227999687194824 C29.006000518798828,-9.227999687194824 37.71900177001953,-9.270000457763672 37.71900177001953,-9.270000457763672z">
                            </path>
                        </g>
                    </g>
                    <g opacity="1" transform="matrix(1,0,0,1,265.4309997558594,173.6840057373047)">
                        <g opacity="1" transform="matrix(1,0,0,1,0,0)">
                            <path stroke-linecap="round" stroke-linejoin="round" fill-opacity="0" stroke="#efe4e4"
                                stroke-opacity="1" stroke-width="7.5"
                                d=" M8.937000274658203,-5.160999774932861 C11.791000366210938,-0.21699999272823334 10.102999687194824,6.085999965667725 5.158999919891357,8.9399995803833 C0.22599999606609344,11.788000106811523 -6.0879998207092285,10.104999542236328 -8.942000389099121,5.160999774932861 C-11.789999961853027,0.2280000001192093 -10.097000122070312,-6.091000080108643 -5.164000034332275,-8.939000129699707 C-0.2199999988079071,-11.793000221252441 6.089000225067139,-10.093999862670898 8.937000274658203,-5.160999774932861z">
                            </path>
                        </g>
                    </g>
                </g>
            </g>
        </symbol>
        <filter id="__lottie_element_560" filterUnits="objectBoundingBox" x="0%" y="0%" width="100%" height="100%">
            <feComponentTransfer in="SourceGraphic">
                <feFuncA type="table" tableValues="1.0 0.0"></feFuncA>
            </feComponentTransfer>
        </filter>
        <mask id="__lottie_element_527_2" mask-type="alpha">
            <g filter="url(#__lottie_element_560)">
                <rect width="350" height="350" x="0" y="0" fill="#ffffff" opacity="0"></rect>
                <use xlink:href="#__lottie_element_527"></use>
            </g>
        </mask>
    </defs>
    <g clip-path="url(#__lottie_element_522)">
        <g mask="url(#__lottie_element_527_2)" style="display: block;">
            <g transform="matrix(1,0,0,1,194.7550048828125,161.91000366210938)" opacity="1">
                <g opacity="1" transform="matrix(1,0,0,1,0,0)">
                    <path stroke-linecap="round" stroke-linejoin="round" fill-opacity="0" stroke="#c80968""
                        stroke-opacity=" 1" stroke-width="7.5"
                        d=" M-32.95000076293945,-11.670999526977539 C-32.95000076293945,-11.670999526977539 2.75,-11.736000061035156 2.75,-11.736000061035156 C2.75,-11.736000061035156 2.75,11.699000358581543 2.75,11.699000358581543 C2.75,11.699000358581543 46.70000076293945,11.633000373840332 46.70000076293945,11.633000373840332">
                    </path>
                </g>
            </g>
        </g>
        <g transform="matrix(1,0,0,1,0,0)" opacity="1" style="display: block;">
            <g opacity="1" transform="matrix(1,0,0,1,111.59600067138672,116.54199981689453)">
                <path stroke-linecap="round" stroke-linejoin="round" fill-opacity="0" stroke="#c80968""
                    stroke-opacity=" 1" stroke-width="7.5"
                    d=" M-50.209999084472656,28.41200065612793 C-44.7140007019043,23.700000762939453 -37.972999572753906,20.39699935913086 -30.548999786376953,19.06399917602539 C-36.94900131225586,13.42300033569336 -40.874000549316406,5.072999954223633 -40.547000885009766,-4.168000221252441 C-40.013999938964844,-19.22599983215332 -27.826000213623047,-31.732999801635742 -12.782999992370605,-32.58300018310547 C-9.706999778747559,-32.75699996948242 -6.699999809265137,-32.47200012207031 -3.872999906539917,-31.764999389648438 C-4.914000034332275,-34.499000549316406 -5.5279998779296875,-37.4370002746582 -5.645999908447266,-40.51100158691406 C-6.2230000495910645,-55.5369987487793 5.631999969482422,-68.64700317382812 20.645000457763672,-69.49600219726562 C36.821998596191406,-70.41100311279297 50.20899963378906,-57.58100128173828 50.20899963378906,-41.604000091552734 C50.20899963378906,-41.604000091552734 50.209999084472656,69.54199981689453 50.209999084472656,69.54199981689453">
                </path>
            </g>
            <g opacity="1" transform="matrix(1,0,0,1,104.33200073242188,231.4969940185547)">
                <path stroke-linecap="round" stroke-linejoin="round" fill-opacity="0" stroke="#c80968""
                    stroke-opacity=" 1" stroke-width="7.5"
                    d=" M57.4739990234375,-26.958999633789062 C57.4739990234375,-26.958999633789062 57.4739990234375,-4.683000087738037 57.4739990234375,-4.683000087738037 C57.4739990234375,-4.683000087738037 57.4739990234375,43.56399917602539 57.4739990234375,43.56399917602539 C57.4739990234375,59.00199890136719 44.9739990234375,71.50299835205078 29.535999298095703,71.50299835205078 C14.118000030517578,71.50299835205078 1.597000002861023,59.00199890136719 1.597000002861023,43.56399917602539 C1.597000002861023,42.125 1.715999960899353,40.70600128173828 1.9129999876022339,39.305999755859375 C0.0989999994635582,39.64099884033203 -1.7940000295639038,39.81800079345703 -3.7070000171661377,39.81800079345703 C-20.801000595092773,39.81800079345703 -34.641998291015625,25.957000732421875 -34.641998291015625,8.86299991607666 C-34.641998291015625,-0.3050000071525574 -30.65999984741211,-8.545999526977539 -24.31100082397461,-14.204999923706055 C-43.23899841308594,-18.089000701904297 -57.4739990234375,-34.86800003051758 -57.4739990234375,-54.95899963378906 C-57.4739990234375,-60.8390007019043 -56.25400161743164,-66.43299865722656 -54.05400085449219,-71.50299835205078">
                </path>
            </g>
            <g opacity="1" transform="matrix(1,0,0,1,74.9739990234375,188.22799682617188)">
                <path stroke-linecap="round" stroke-linejoin="round" fill-opacity="0" stroke="#c80968""
                    stroke-opacity=" 1" stroke-width="7.5"
                    d=" M7.758999824523926,9.53499984741211 C-1.0980000495910645,7.7179999351501465 -7.758999824523926,-0.1340000033378601 -7.758999824523926,-9.53499984741211">
                </path>
            </g>
            <g opacity="1" transform="matrix(1,0,0,1,118.27999877929688,94.6510009765625)">
                <path stroke-linecap="round" stroke-linejoin="round" fill-opacity="0" stroke="#c80968""
                    stroke-opacity=" 1" stroke-width="7.5"
                    d=" M-10.557000160217285,-9.87399959564209 C-10.557000160217285,-9.87399959564209 -7.061999797821045,3.8329999446868896 10.557000160217285,9.87399959564209">
                </path>
            </g>
            <g opacity="1" transform="matrix(1,0,0,1,95.87999725341797,140.9409942626953)">
                <path stroke-linecap="round" stroke-linejoin="round" fill-opacity="0" stroke="#c80968"
                    stroke-opacity="1" stroke-width="7.5"
                    d=" M-14.833999633789062,-5.335000038146973 C-14.833999633789062,-5.335000038146973 -4.295000076293945,7.127999782562256 14.833999633789062,5.113999843597412">
                </path>
            </g>
            <g opacity="1" transform="matrix(1,0,0,1,144.49600219726562,263.37799072265625)">
                <path stroke-linecap="round" stroke-linejoin="round" fill-opacity="0" stroke="#c80968""
                    stroke-opacity=" 1" stroke-width="7.5"
                    d=" M-17.309999465942383,2.247999906539917 C-17.309999465942383,2.247999906539917 -13.37399959564209,-3.4839999675750732 -3.681999921798706,-2.0260000228881836 C-1.3040000200271606,-1.6679999828338623 0.9900000095367432,-0.8820000290870667 3.135999917984009,0.2029999941587448 C5.854000091552734,1.5770000219345093 11.854000091552734,3.8410000801086426 17.309999465942383,0.6100000143051147">
                </path>
            </g>
            <g opacity="1" transform="matrix(1,0,0,1,93.69000244140625,210.85800170898438)">
                <path stroke-linecap="round" stroke-linejoin="round" fill-opacity="0" stroke="#c80968""
                    stroke-opacity=" 1" stroke-width="7.5"
                    d=" M-13.668999671936035,6.434000015258789 C-13.668999671936035,6.434000015258789 2.4260001182556152,8.107000350952148 13.668999671936035,-6.492000102996826">
                </path>
            </g>
            <g opacity="1" transform="matrix(1,0,0,1,111.00800323486328,223.72900390625)">
                <path stroke-linecap="round" stroke-linejoin="round" fill-opacity="0" stroke="#c80968""
                    stroke-opacity=" 1" stroke-width="7.5"
                    d=" M-9.515000343322754,-12.871000289916992 C-9.515000343322754,-12.871000289916992 -11.812999725341797,7.735000133514404 9.586999893188477,12.871000289916992">
                </path>
            </g>
            <g opacity="1" transform="matrix(1,0,0,1,104.33200073242188,116.4800033569336)">
                <path stroke-linecap="round" stroke-linejoin="round" fill-opacity="0" stroke="#c80968""
                    stroke-opacity=" 1" stroke-width="7.5"
                    d=" M11.585000038146973,-0.16500000655651093 C11.585000038146973,-0.16500000655651093 -1.5420000553131104,-10.192999839782715 -11.585000038146973,3.6710000038146973">
                </path>
            </g>
            <g opacity="1" transform="matrix(1,0,0,1,134.1719970703125,182.5240020751953)">
                <path stroke-linecap="round" stroke-linejoin="round" fill-opacity="0" stroke="#c80968""
                    stroke-opacity=" 1" stroke-width="7.5"
                    d=" M6.986000061035156,-9.54800033569336 C6.986000061035156,-9.54800033569336 -9.38700008392334,-7.355999946594238 -6.684999942779541,9.54800033569336">
                </path>
            </g>
            <g opacity="1" transform="matrix(1,0,0,1,149.5659942626953,120.1510009765625)">
                <path stroke-linecap="round" stroke-linejoin="round" fill-opacity="0" stroke="#c80968""
                    stroke-opacity=" 1" stroke-width="7.5"
                    d=" M12.23900032043457,-8.973999977111816 C12.23900032043457,-8.973999977111816 -7.067999839782715,-11.565999984741211 -12.23900032043457,9.079000473022461">
                </path>
            </g>
        </g>
        <g transform="matrix(1,0,0,1,219.94000244140625,277.67498779296875)" opacity="1" style="display: block;">
            <g opacity="1" transform="matrix(1,0,0,1,0,0)">
                <path stroke-linecap="round" stroke-linejoin="round" fill-opacity="0" stroke="#c80968""
                    stroke-opacity=" 1" stroke-width="7.5"
                    d=" M58.13399887084961,11.11299991607666 C58.13399887084961,11.11299991607666 15.62399959564209,11.11299991607666 15.62399959564209,11.11299991607666 C15.62399959564209,11.11299991607666 -5.020999908447266,-11.11299991607666 -5.020999908447266,-11.11299991607666 C-5.020999908447266,-11.11299991607666 -58.13399887084961,-11.11299991607666 -58.13399887084961,-11.11299991607666">
                </path>
            </g>
        </g>
        <g transform="matrix(1,0,0,1,205.41500854492188,236.1959991455078)" opacity="1" style="display: block;">
            <g opacity="1" transform="matrix(1,0,0,1,0,0)">
                <path stroke-linecap="round" stroke-linejoin="round" fill-opacity="0" stroke="#c80968""
                    stroke-opacity=" 1" stroke-width="7.5"
                    d=" M43.61000061035156,9.381999969482422 C43.61000061035156,9.381999969482422 28.384000778198242,9.381999969482422 28.384000778198242,9.381999969482422 C28.384000778198242,9.381999969482422 9.895000457763672,-9.381999969482422 9.895000457763672,-9.381999969482422 C9.895000457763672,-9.381999969482422 -43.61000061035156,-9.380999565124512 -43.61000061035156,-9.380999565124512">
                </path>
            </g>
        </g>
        <g transform="matrix(1,0,0,1,269.9639892578125,245.57699584960938)" opacity="1" style="display: block;">
            <g opacity="1" transform="matrix(1,0,0,1,0,0)">
                <path stroke-linecap="round" stroke-linejoin="round" fill-opacity="0" stroke="#c80968""
                    stroke-opacity=" 1" stroke-width="7.5"
                    d=" M4.5329999923706055,0 C4.5329999923706055,0 -4.5329999923706055,0 -4.5329999923706055,0"></path>
            </g>
        </g>
        <g transform="matrix(1,0,0,1,219.94400024414062,79.9530029296875)" opacity="1" style="display: block;">
            <g opacity="1" transform="matrix(1,0,0,1,0,0)">
                <path stroke-linecap="round" stroke-linejoin="round" fill-opacity="0" stroke="#c80968""
                    stroke-opacity=" 1" stroke-width="7.5"
                    d=" M-58.138999938964844,12.899999618530273 C-58.138999938964844,12.899999618530273 -11.302000045776367,12.899999618530273 -11.302000045776367,12.899999618530273 C-11.302000045776367,12.899999618530273 9.343000411987305,-12.899999618530273 9.343000411987305,-12.899999618530273 C9.343000411987305,-12.899999618530273 58.138999938964844,-12.899999618530273 58.138999938964844,-12.899999618530273">
                </path>
            </g>
        </g>
        <g transform="matrix(1,0,0,1,205.41500854492188,114.29000091552734)" opacity="1" style="display: block;">
            <g opacity="1" transform="matrix(1,0,0,1,0,0)">
                <path stroke-linecap="round" stroke-linejoin="round" fill-opacity="0" stroke="#c80968""
                    stroke-opacity=" 1" stroke-width="7.5"
                    d=" M43.61000061035156,-9.381999969482422 C43.61000061035156,-9.381999969482422 28.384000778198242,-9.381999969482422 28.384000778198242,-9.381999969482422 C28.384000778198242,-9.381999969482422 9.895000457763672,9.381999969482422 9.895000457763672,9.381999969482422 C9.895000457763672,9.381999969482422 -43.61000061035156,9.381999969482422 -43.61000061035156,9.381999969482422">
                </path>
            </g>
        </g>
        <g transform="matrix(1,0,0,1,269.9639892578125,104.90899658203125)" opacity="1" style="display: block;">
            <g opacity="1" transform="matrix(1,0,0,1,0,0)">
                <path stroke-linecap="round" stroke-linejoin="round" fill-opacity="0" stroke="#c80968""
                    stroke-opacity=" 1" stroke-width="7.5"
                    d=" M4.5329999923706055,0 C4.5329999923706055,0 -4.5329999923706055,0 -4.5329999923706055,0"></path>
            </g>
        </g>
        <g transform="matrix(1,0,0,1,290.47100830078125,288.80499267578125)" opacity="1" style="display: block;">
            <g opacity="1" transform="matrix(1,0,0,1,0,0)">
                <path stroke-linecap="round" stroke-linejoin="round" fill-opacity="0" stroke="#c80968""
                    stroke-opacity=" 1" stroke-width="7.5"
                    d=" M12.38700008392334,0 C12.38700008392334,6.813000202178955 6.813000202178955,12.38700008392334 0,12.38700008392334 C-6.854000091552734,12.38700008392334 -12.38700008392334,6.813000202178955 -12.38700008392334,0 C-12.38700008392334,-6.854000091552734 -6.854000091552734,-12.38700008392334 0,-12.38700008392334 C6.813000202178955,-12.38700008392334 12.38700008392334,-6.854000091552734 12.38700008392334,0z">
                </path>
            </g>
        </g>
        <g transform="matrix(1,0,0,1,290.4700012207031,67.05400085449219)" opacity="1" style="display: block;">
            <g opacity="1" transform="matrix(1,0,0,1,0,0)">
                <path stroke-linecap="round" stroke-linejoin="round" fill-opacity="0" stroke="#f5f7f7"
                    stroke-opacity="1" stroke-width="7.5"
                    d=" M12.38700008392334,0 C12.38700008392334,6.813000202178955 6.813000202178955,12.38700008392334 0,12.38700008392334 C-6.854000091552734,12.38700008392334 -12.38700008392334,6.813000202178955 -12.38700008392334,0 C-12.38700008392334,-6.854000091552734 -6.854000091552734,-12.38700008392334 0,-12.38700008392334 C6.813000202178955,-12.38700008392334 12.38700008392334,-6.854000091552734 12.38700008392334,0z">
                </path>
            </g>
        </g>
        <g transform="matrix(0.9209057092666626,-0.38978537917137146,0.38978537917137146,0.9209057092666626,-46.70207214355469,117.19502258300781)"
            opacity="1" style="display: block;">
            <g opacity="1" transform="matrix(1,0,0,1,265.42401123046875,173.6739959716797)">
                <g opacity="1" transform="matrix(1,0,0,1,0,0)">
                    <path stroke-linecap="round" stroke-linejoin="round" fill-opacity="1" stroke="#8ba5a5"
                        stroke-opacity="1" stroke-width="7.5"
                        d=" M37.71900177001953,-9.270000457763672 C37.71900177001953,-9.270000457763672 37.71900177001953,9.270000457763672 37.71900177001953,9.270000457763672 C37.71900177001953,9.270000457763672 29.006000518798828,9.270000457763672 29.006000518798828,9.270000457763672 C27.684999465942383,13.39900016784668 25.496999740600586,17.23900032043457 22.52400016784668,20.500999450683594 C22.52400016784668,20.500999450683594 26.900999069213867,28.05699920654297 26.900999069213867,28.05699920654297 C26.900999069213867,28.05699920654297 10.83899974822998,37.305999755859375 10.83899974822998,37.305999755859375 C10.83899974822998,37.305999755859375 6.502999782562256,29.791000366210938 6.502999782562256,29.791000366210938 C2.1679999828338623,30.700000762939453 -2.25,30.700000762939453 -6.461999893188477,29.75 C-6.461999893188477,29.75 -10.83899974822998,37.305999755859375 -10.83899974822998,37.305999755859375 C-10.83899974822998,37.305999755859375 -26.858999252319336,28.016000747680664 -26.858999252319336,28.016000747680664 C-26.858999252319336,28.016000747680664 -22.52400016784668,20.500999450683594 -22.52400016784668,20.500999450683594 C-23.9689998626709,18.93199920654297 -25.249000549316406,17.1560001373291 -26.36400032043457,15.256999969482422 C-27.479000091552734,13.315999984741211 -28.344999313354492,11.293000221252441 -29.006000518798828,9.270000457763672 C-29.006000518798828,9.270000457763672 -37.71900177001953,9.270000457763672 -37.71900177001953,9.270000457763672 C-37.71900177001953,9.270000457763672 -37.71900177001953,-9.270000457763672 -37.71900177001953,-9.270000457763672 C-37.71900177001953,-9.270000457763672 -29.006000518798828,-9.270000457763672 -29.006000518798828,-9.270000457763672 C-27.684999465942383,-13.357999801635742 -25.496999740600586,-17.197999954223633 -22.52400016784668,-20.500999450683594 C-22.52400016784668,-20.500999450683594 -26.900999069213867,-28.014999389648438 -26.900999069213867,-28.014999389648438 C-26.900999069213867,-28.014999389648438 -10.83899974822998,-37.305999755859375 -10.83899974822998,-37.305999755859375 C-10.83899974822998,-37.305999755859375 -6.461999893188477,-29.75 -6.461999893188477,-29.75 C-2.1679999828338623,-30.700000762939453 2.250999927520752,-30.659000396728516 6.461999893188477,-29.75 C6.461999893188477,-29.75 10.83899974822998,-37.263999938964844 10.83899974822998,-37.263999938964844 C10.83899974822998,-37.263999938964844 26.900999069213867,-28.016000747680664 26.900999069213867,-28.016000747680664 C26.900999069213867,-28.016000747680664 22.52400016784668,-20.458999633789062 22.52400016784668,-20.458999633789062 C23.9689998626709,-18.889999389648438 25.249000549316406,-17.1560001373291 26.36400032043457,-15.21500015258789 C27.479000091552734,-13.27400016784668 28.344999313354492,-11.293000221252441 29.006000518798828,-9.227999687194824 C29.006000518798828,-9.227999687194824 37.71900177001953,-9.270000457763672 37.71900177001953,-9.270000457763672z">
                    </path>
                </g>
            </g>
            <g opacity="1" transform="matrix(1,0,0,1,265.4309997558594,173.6840057373047)">
                <g opacity="1" transform="matrix(1,0,0,1,0,0)">
                    <path stroke-linecap="round" stroke-linejoin="round" fill-opacity="1" stroke="#dee5e5"
                        stroke-opacity="1" stroke-width="7.5"
                        d=" M8.937000274658203,-5.160999774932861 C11.791000366210938,-0.21699999272823334 10.102999687194824,6.085999965667725 5.158999919891357,8.9399995803833 C0.22599999606609344,11.788000106811523 -6.0879998207092285,10.104999542236328 -8.942000389099121,5.160999774932861 C-11.789999961853027,0.2280000001192093 -10.097000122070312,-6.091000080108643 -5.164000034332275,-8.939000129699707 C-0.2199999988079071,-11.793000221252441 6.089000225067139,-10.093999862670898 8.937000274658203,-5.160999774932861z">
                    </path>
                </g>
            </g>
        </g>
    </g>
</svg>