<svg version="1.1" viewBox="0 50 640 300" xmlns="http://www.w3.org/2000/svg" xmlns:xlink="http://www.w3.org/1999/xlink"
    xmlns:svgjs="http://svgjs.dev/svgjs" matcher="0.4869716818198351">
    <g viewBox="0 0 640 400" matcher="0.4869716818198351">
        <g matcher="0.4869716818198351">
            <g matcher="0.4869716818198351">
                <g matcher="0.4869716818198351"><svg viewBox="0 0 640 400" data-background-color="#0a1627"
                        preserveAspectRatio="xMidYMid meet" height="400" width="640" xmlns="http://www.w3.org/2000/svg"
                        xmlns:xlink="http://www.w3.org/1999/xlink">

                        <g id="tight-bounds" transform="matrix(1,0,0,1,122.24000000000001,152.98423556315174)"><svg
                                viewBox="0 0 395.52 94.03152887369652" height="94.03152887369652" width="395.52">
                                <g><svg viewBox="0 0 395.52 94.03152887369652" height="94.03152887369652"
                                        width="395.52">
                                        <g><svg viewBox="0 0 395.52 94.03152887369652" height="94.03152887369652"
                                                width="395.52">
                                                <g><svg viewBox="0 0 637.2850844982258 151.50912930767356"
                                                        height="94.03152887369652" width="395.52">
                                                        <g
                                                            transform="matrix(1,0,0,1,241.76508449822583,28.903992181242387)">
                                                            <svg viewBox="0 0 395.52 93.70114494518879"
                                                                height="93.70114494518879" width="395.52">
                                                                <g id="textblocktransform"><svg
                                                                        viewBox="0 0 395.52 93.70114494518879"
                                                                        height="93.70114494518879" width="395.52"
                                                                        id="textblock">
                                                                        <g><svg viewBox="0 0 395.52 93.70114494518879"
                                                                                height="93.70114494518879"
                                                                                width="395.52">
                                                                                <g transform="matrix(1,0,0,1,0,0)"><svg
                                                                                        width="395.52"
                                                                                        viewBox="0.5099999904632568 -37.5 160.3400115966797 37.9900016784668"
                                                                                        height="93.70114494518879"
                                                                                        data-palette-color="#e11d48">
                                                                                        <path
                                                                                            d="M11.6-4.79L17.97-26.42 24.24-26.42 15.11 0 11.21 0 11.6-4.79ZM6.81-26.42L13.31-4.71 13.6 0 9.72 0 0.51-26.42 6.81-26.42ZM42.28-5.42L42.28-17.85Q42.28-19.9 41.15-21.12 40.01-22.34 37.72-22.34L37.72-22.34Q36.35-22.34 35.32-21.86 34.3-21.39 33.74-20.58 33.18-19.78 33.18-18.75L33.18-18.75 27.12-18.75Q27.12-20.87 28.46-22.74 29.81-24.61 32.26-25.76 34.71-26.9 38.06-26.9L38.06-26.9Q41.04-26.9 43.36-25.9 45.68-24.9 47.01-22.88 48.34-20.85 48.34-17.8L48.34-17.8 48.34-6.15Q48.34-4.3 48.61-2.88 48.87-1.46 49.36-0.42L49.36-0.42 49.36 0 43.16 0Q42.75-0.95 42.51-2.47 42.28-3.98 42.28-5.42L42.28-5.42ZM43.16-16.09L43.21-12.35 39.06-12.35Q35.84-12.35 34.21-11.17 32.59-9.99 32.59-7.96L32.59-7.96Q32.59-6.4 33.66-5.36 34.74-4.32 36.69-4.32L36.69-4.32Q38.47-4.32 39.8-5.04 41.14-5.76 41.89-6.82 42.65-7.89 42.67-8.81L42.67-8.81 44.6-6.1Q44.31-5.1 43.61-3.97 42.92-2.83 41.78-1.82 40.65-0.81 39.1-0.16 37.55 0.49 35.5 0.49L35.5 0.49Q32.91 0.49 30.88-0.54 28.85-1.56 27.7-3.36 26.54-5.15 26.54-7.4L26.54-7.4Q26.54-11.6 29.68-13.84 32.83-16.09 38.62-16.09L38.62-16.09 43.16-16.09ZM54.44-37.5L60.49-37.5 60.49-5.71 59.91 0 54.44 0 54.44-37.5ZM77.68-13.45L77.68-12.94Q77.68-9.03 76.52-6.01 75.36-2.98 73.08-1.25 70.8 0.49 67.4 0.49L67.4 0.49Q64.11 0.49 61.95-1.17 59.79-2.83 58.6-5.75 57.42-8.67 56.98-12.48L56.98-12.48 56.98-13.92Q57.42-17.75 58.6-20.67 59.79-23.58 61.93-25.24 64.08-26.9 67.35-26.9L67.35-26.9Q70.77-26.9 73.07-25.2 75.36-23.49 76.52-20.46 77.68-17.43 77.68-13.45L77.68-13.45ZM71.63-12.94L71.63-13.45Q71.63-15.77 71.1-17.7 70.58-19.63 69.32-20.79 68.06-21.95 65.84-21.95L65.84-21.95Q64.3-21.95 63.2-21.44 62.1-20.92 61.36-20.02 60.62-19.12 60.2-17.9 59.79-16.67 59.64-15.26L59.64-15.26 59.64-11.11Q59.86-9.28 60.54-7.76 61.23-6.25 62.54-5.36 63.86-4.47 65.89-4.47L65.89-4.47Q68.06-4.47 69.31-5.59 70.55-6.71 71.09-8.63 71.63-10.55 71.63-12.94L71.63-12.94ZM97.38-5.42L97.38-17.85Q97.38-19.9 96.24-21.12 95.11-22.34 92.81-22.34L92.81-22.34Q91.45-22.34 90.42-21.86 89.4-21.39 88.84-20.58 88.27-19.78 88.27-18.75L88.27-18.75 82.22-18.75Q82.22-20.87 83.56-22.74 84.9-24.61 87.36-25.76 89.81-26.9 93.16-26.9L93.16-26.9Q96.14-26.9 98.45-25.9 100.77-24.9 102.1-22.88 103.43-20.85 103.43-17.8L103.43-17.8 103.43-6.15Q103.43-4.3 103.7-2.88 103.97-1.46 104.46-0.42L104.46-0.42 104.46 0 98.26 0Q97.84-0.95 97.61-2.47 97.38-3.98 97.38-5.42L97.38-5.42ZM98.26-16.09L98.31-12.35 94.16-12.35Q90.93-12.35 89.31-11.17 87.69-9.99 87.69-7.96L87.69-7.96Q87.69-6.4 88.76-5.36 89.84-4.32 91.79-4.32L91.79-4.32Q93.57-4.32 94.9-5.04 96.23-5.76 96.99-6.82 97.75-7.89 97.77-8.81L97.77-8.81 99.7-6.1Q99.41-5.1 98.71-3.97 98.01-2.83 96.88-1.82 95.74-0.81 94.19-0.16 92.64 0.49 90.59 0.49L90.59 0.49Q88.01 0.49 85.98-0.54 83.95-1.56 82.79-3.36 81.63-5.15 81.63-7.4L81.63-7.4Q81.63-11.6 84.78-13.84 87.93-16.09 93.72-16.09L93.72-16.09 98.26-16.09ZM115.52-20.78L115.52 0 109.46 0 109.46-26.42 115.15-26.42 115.52-20.78ZM114.44-14.16L112.49-14.14Q112.51-17.97 113.83-20.84 115.15-23.71 117.52-25.31 119.89-26.9 123.04-26.9L123.04-26.9Q125.6-26.9 127.48-25.94 129.36-24.98 130.41-22.81 131.46-20.65 131.46-17.02L131.46-17.02 131.46 0 125.38 0 125.38-17.07Q125.38-18.9 124.86-19.97 124.33-21.04 123.29-21.5 122.26-21.95 120.77-21.95L120.77-21.95Q119.25-21.95 118.09-21.35 116.93-20.75 116.12-19.68 115.3-18.6 114.87-17.19 114.44-15.77 114.44-14.16L114.44-14.16ZM143.47-37.5L143.47 0 137.39 0 137.39-37.5 143.47-37.5ZM159.85-26.42L148.43-13.62 142.05-7.15 140.44-12.21 145.25-18.19 152.55-26.42 159.85-26.42ZM153.82 0L145.42-12.33 149.26-16.53 160.85 0 153.82 0Z"
                                                                                            opacity="1"
                                                                                            transform="matrix(1,0,0,1,0,0)"
                                                                                            fill="#e11d48"
                                                                                            class="wordmark-text-0"
                                                                                            data-fill-palette-color="primary"
                                                                                            id="text-0"></path>
                                                                                    </svg></g>
                                                                            </svg></g>
                                                                    </svg></g>
                                                            </svg>
                                                        </g>
                                                        <g><svg viewBox="0 0 219.64449300414543 151.50912930767356"
                                                                height="151.50912930767356" width="219.64449300414543">
                                                                <g><svg xmlns="http://www.w3.org/2000/svg"
                                                                        xmlns:xlink="http://www.w3.org/1999/xlink"
                                                                        version="1.1" x="0" y="0"
                                                                        viewBox="35.319000244140625 39.874000549316406 29.361000061035156 20.25299835205078"
                                                                        enable-background="new 0 0 100 100"
                                                                        xml:space="preserve" height="151.50912930767356"
                                                                        width="219.64449300414543" class="icon-icon-0"
                                                                        data-fill-palette-color="accent" id="icon-0">
                                                                        <g fill="#e11d48"
                                                                            data-fill-palette-color="accent">
                                                                            <polygon
                                                                                points="37.876,59.597 35.319,57.04 42.625,49.734 35.319,42.431 37.876,39.874 47.738,49.734  "
                                                                                fill="#e11d48"
                                                                                data-fill-palette-color="accent">
                                                                            </polygon>
                                                                        </g>
                                                                        <g fill="#e11d48"
                                                                            data-fill-palette-color="accent">
                                                                            <rect x="48.182" y="56.51" width="16.498"
                                                                                height="3.617" fill="#e11d48"
                                                                                data-fill-palette-color="accent"></rect>
                                                                        </g>
                                                                    </svg></g>
                                                            </svg></g>
                                                    </svg></g>
                                            </svg></g>
                                    </svg></g>
                                <defs></defs>
                            </svg>
                            <rect width="395.52" height="94.03152887369652" fill="none" stroke="none"
                                visibility="hidden"></rect>
                        </g>
                    </svg></g>
            </g>
        </g>
    </g>
    <rect width="257.44376377193674" height="70.15398562308172" x="267.3017578893523" y="165.9229995032266" rx="2.5"
        ry="2.5" fill="transparent" class="logo-element-hover-target"></rect>
    <rect width="148.3185645707091" height="106.03152543873455" x="117.24003010151881" y="147.98423728063273" rx="2.5"
        ry="2.5" fill="transparent" class="logo-element-hover-target"></rect>
</svg>