<svg version="1.1" viewBox="0 0 640 400" xmlns="http://www.w3.org/2000/svg" xmlns:xlink="http://www.w3.org/1999/xlink"
    xmlns:svgjs="http://svgjs.dev/svgjs" matcher="0.3985152511880463">
    <g viewBox="0 0 640 400" matcher="0.3985152511880463">
        <g matcher="0.3985152511880463">
            <g matcher="0.3985152511880463">
                <g matcher="0.3985152511880463"><svg viewBox="0 0 640 400" data-background-color="#ffffff"
                        preserveAspectRatio="xMidYMid meet" height="400" width="640" xmlns="http://www.w3.org/2000/svg"
                        xmlns:xlink="http://www.w3.org/1999/xlink">

                        <g id="tight-bounds" transform="matrix(1,0,0,1,122.24000000000001,135.96923439166596)"><svg
                                viewBox="0 0 395.52 128.06153121666807" height="128.06153121666807" width="395.52">
                                <g><svg viewBox="0 0 395.52 128.06153121666807" height="128.06153121666807"
                                        width="395.52">
                                        <g><svg viewBox="0 0 395.52 128.06153121666807" height="128.06153121666807"
                                                width="395.52">
                                                <g><svg viewBox="0 0 558.1756312804144 180.7261984971688"
                                                        height="128.06153121666807" width="395.52">
                                                        <g><svg viewBox="0 0 395.52 180.7261984971688"
                                                                height="180.7261984971688" width="395.52">
                                                                <g id="textblocktransform"><svg
                                                                        viewBox="0 0 395.52 180.7261984971688"
                                                                        height="180.7261984971688" width="395.52"
                                                                        id="textblock">
                                                                        <g><svg viewBox="0 0 395.52 98.82307426597582"
                                                                                height="98.82307426597582"
                                                                                width="395.52">
                                                                                <g transform="matrix(1,0,0,1,0,0)"><svg
                                                                                        width="395.52"
                                                                                        viewBox="3.3499999046325684 -34.29999923706055 173.6899871826172 43.400001525878906"
                                                                                        height="98.82307426597582"
                                                                                        data-palette-color="#3947e3">
                                                                                        <path
                                                                                            d="M3.35 0L3.35-34.3 19.7-34.3Q25.45-34.3 28.35-31.38 31.25-28.45 31.25-23.1L31.25-23.1Q31.25-17.75 28.23-14.78 25.2-11.8 19.2-11.8L19.2-11.8 10.6-11.8 10.6 0 3.35 0ZM10.6-17.95L19.05-17.95Q21.4-17.95 22.65-19.3 23.9-20.65 23.9-23.1L23.9-23.1Q23.9-25.5 22.65-26.83 21.4-28.15 19.05-28.15L19.05-28.15 10.6-28.15 10.6-17.95ZM42.95 0.6Q39.9 0.6 37.35-1 34.8-2.6 34.8-6.8L34.8-6.8Q34.8-11.85 38.95-13.98 43.1-16.1 50.7-16.1L50.7-16.1 50.7-17.95Q50.7-19.7 49.92-20.65 49.15-21.6 47-21.6L47-21.6Q44.7-21.6 43.72-20.9 42.75-20.2 42.75-19.25L42.75-19.25 42.75-18.5 36.15-18.5Q36.1-18.8 36.1-19.6L36.1-19.6Q36.1-22.9 39.02-24.9 41.95-26.9 46.8-26.9L46.8-26.9Q52.2-26.9 54.87-24.7 57.55-22.5 57.55-18.35L57.55-18.35 57.55-6.75Q57.55-5.85 58.05-5.43 58.55-5 59.3-5L59.3-5 60.7-5 60.7-0.2Q59.1 0.6 56.75 0.6L56.75 0.6Q54.7 0.6 53.32-0.3 51.95-1.2 51.45-2.85L51.45-2.85 51.15-2.85Q49.7-1.15 47.82-0.28 45.95 0.6 42.95 0.6L42.95 0.6ZM45.1-4.8Q48-4.8 49.35-6.43 50.7-8.05 50.7-10.75L50.7-10.75 50.7-11.55Q41.75-11.55 41.75-7.55L41.75-7.55Q41.75-6.3 42.57-5.55 43.4-4.8 45.1-4.8L45.1-4.8ZM68.7 9.1Q65.95 9.1 64 8.45L64 8.45 64 3.65 67.25 3.65Q69 3.65 70.1 2.8 71.2 1.95 71.9 0L71.9 0 61.6-26.3 68.75-26.3 73.7-13.95Q74.45-12 75.55-7.1L75.55-7.1 75.8-7.1Q77-11.7 77.65-13.9L77.65-13.9 81.55-26.3 88.5-26.3 79.65-1.35Q78.45 1.95 77.15 4.17 75.85 6.4 73.77 7.75 71.7 9.1 68.7 9.1L68.7 9.1ZM92.29 0L92.29-34.3 99.54-34.3 99.54-6.3 118.04-6.3 118.04 0 92.29 0ZM134.74 0.6Q127.99 0.6 124.69-2.75 121.39-6.1 121.39-13.15L121.39-13.15Q121.39-20.2 124.69-23.55 127.99-26.9 134.74-26.9L134.74-26.9Q141.49-26.9 144.81-23.55 148.14-20.2 148.14-13.15L148.14-13.15Q148.14-6.1 144.81-2.75 141.49 0.6 134.74 0.6L134.74 0.6ZM134.74-5Q138.09-5 139.59-6.93 141.09-8.85 141.09-12.75L141.09-12.75 141.09-13.55Q141.09-17.45 139.59-19.38 138.09-21.3 134.74-21.3L134.74-21.3Q131.39-21.3 129.92-19.38 128.44-17.45 128.44-13.55L128.44-13.55 128.44-12.75Q128.44-8.85 129.92-6.93 131.39-5 134.74-5L134.74-5ZM170.19 8.65L170.19-3.05 169.89-3.05Q168.74-1.3 166.71-0.35 164.69 0.6 162.04 0.6L162.04 0.6Q157.44 0.6 154.66-2.85 151.89-6.3 151.89-13.1L151.89-13.1Q151.89-20.05 154.64-23.48 157.39-26.9 162.39-26.9L162.39-26.9Q164.94-26.9 167.04-25.88 169.14-24.85 170.39-22.85L170.39-22.85 170.74-22.85 171.19-26.3 177.04-26.3 177.04 8.65 170.19 8.65ZM164.59-5.35Q170.19-5.35 170.19-12.8L170.19-12.8 170.19-13.6Q170.19-20.95 164.59-20.95L164.59-20.95Q161.54-20.95 160.24-19.13 158.94-17.3 158.94-13.6L158.94-13.6 158.94-12.7Q158.94-9 160.24-7.18 161.54-5.35 164.59-5.35L164.59-5.35Z"
                                                                                            opacity="1"
                                                                                            transform="matrix(1,0,0,1,0,0)"
                                                                                            fill="#3947e3"
                                                                                            class="wordmark-text-0"
                                                                                            data-fill-palette-color="primary"
                                                                                            id="text-0"></path>
                                                                                    </svg></g>
                                                                            </svg></g>
                                                                        <g
                                                                            transform="matrix(1,0,0,1,151.2864,122.15283034639033)">
                                                                            <svg viewBox="0 0 244.2336 58.57336815077848"
                                                                                height="58.57336815077848"
                                                                                width="244.2336">
                                                                                <g transform="matrix(1,0,0,1,0,0)"><svg
                                                                                        width="244.2336"
                                                                                        viewBox="2.8499999046325684 -33.04999923706055 183.02999877929688 43.900001525878906"
                                                                                        height="58.57336815077848"
                                                                                        data-palette-color="#77d4fc">
                                                                                        <path
                                                                                            d="M15.05-27.15Q18.95-27.15 20.95-23.58 22.95-20 22.95-13.3L22.95-13.3Q22.95-6.8 20.68-3.03 18.4 0.75 14.35 0.75L14.35 0.75Q11.15 0.75 9-2.1L9-2.1 9 10.15 2.85 10.85 2.85-26.45 8.3-26.45 8.55-23.25Q9.85-25.25 11.45-26.2 13.05-27.15 15.05-27.15L15.05-27.15ZM12.7-3.95Q14.6-3.95 15.6-6.13 16.6-8.3 16.6-13.25L16.6-13.25Q16.6-18.45 15.75-20.5 14.9-22.55 13.1-22.55L13.1-22.55Q10.8-22.55 9-19.25L9-19.25 9-6.45Q10.6-3.95 12.7-3.95L12.7-3.95ZM44.45-6.4Q44.45-5.1 44.8-4.48 45.15-3.85 45.95-3.45L45.95-3.45 44.7 0.65Q42.65 0.4 41.42-0.45 40.2-1.3 39.6-3.05L39.6-3.05Q37.3 0.75 33.15 0.75L33.15 0.75Q29.85 0.75 27.9-1.48 25.95-3.7 25.95-7.4L25.95-7.4Q25.95-11.7 28.62-13.95 31.3-16.2 36.4-16.2L36.4-16.2 38.45-16.2 38.45-18.05Q38.45-20.55 37.57-21.58 36.7-22.6 34.75-22.6L34.75-22.6Q32.4-22.6 28.9-21.3L28.9-21.3 27.5-25.3Q29.5-26.2 31.65-26.68 33.8-27.15 35.75-27.15L35.75-27.15Q44.45-27.15 44.45-18.35L44.45-18.35 44.45-6.4ZM34.8-3.7Q37.2-3.7 38.45-7L38.45-7 38.45-12.55 37-12.55Q34.45-12.55 33.27-11.4 32.1-10.25 32.1-7.85L32.1-7.85Q32.1-5.8 32.8-4.75 33.5-3.7 34.8-3.7L34.8-3.7ZM68.9-26.45L61.9 0.1Q60.6 4.9 57.7 7.65 54.8 10.4 49.95 10.85L49.95 10.85 49.25 6.5Q52.4 5.85 53.97 4.42 55.55 3 56.45 0L56.45 0 54.15 0 47.45-26.45 53.7-26.45 58.1-4.1 62.8-26.45 68.9-26.45ZM95.44-27.15Q98.09-27.15 99.69-25.1 101.29-23.05 101.29-19.6L101.29-19.6 101.29 0 95.24 0 95.24-18.95Q95.24-20.85 94.74-21.68 94.24-22.5 93.29-22.5L93.29-22.5Q91.34-22.5 89.54-18.8L89.54-18.8 89.54 0 83.54 0 83.54-18.95Q83.54-22.5 81.64-22.5L81.64-22.5Q79.59-22.5 77.84-18.8L77.84-18.8 77.84 0 71.79 0 71.79-26.45 77.14-26.45 77.54-23.05Q80.14-27.15 83.79-27.15L83.79-27.15Q85.64-27.15 86.99-26 88.34-24.85 89.04-22.75L89.04-22.75Q91.69-27.15 95.44-27.15L95.44-27.15ZM125.64-13.85Q125.64-13.4 125.49-11.3L125.49-11.3 111.84-11.3Q112.04-7.2 113.27-5.58 114.49-3.95 116.74-3.95L116.74-3.95Q118.29-3.95 119.54-4.48 120.79-5 122.24-6.15L122.24-6.15 124.79-2.65Q121.29 0.75 116.39 0.75L116.39 0.75Q111.19 0.75 108.42-2.85 105.64-6.45 105.64-13L105.64-13Q105.64-19.55 108.29-23.35 110.94-27.15 115.79-27.15L115.79-27.15Q120.44-27.15 123.04-23.78 125.64-20.4 125.64-13.85L125.64-13.85ZM119.64-15.3L119.64-15.65Q119.64-19.4 118.74-21.13 117.84-22.85 115.84-22.85L115.84-22.85Q113.99-22.85 113.02-21.18 112.04-19.5 111.84-15.3L111.84-15.3 119.64-15.3ZM142.29-27.15Q145.14-27.15 146.79-25.1 148.44-23.05 148.44-19.6L148.44-19.6 148.44 0 142.29 0 142.29-18.9Q142.29-20.8 141.76-21.63 141.24-22.45 140.24-22.45L140.24-22.45Q138.14-22.45 136.09-18.5L136.09-18.5 136.09 0 129.94 0 129.94-26.45 135.29-26.45 135.74-23Q137.09-25.1 138.61-26.13 140.14-27.15 142.29-27.15L142.29-27.15ZM165.14-5L167.29-1.2Q164.84 0.75 161.54 0.75L161.54 0.75Q158.09 0.75 156.29-1.23 154.49-3.2 154.49-6.6L154.49-6.6 154.49-22 151.39-22 151.39-26.45 154.49-26.45 154.49-32.3 160.64-33.05 160.64-26.45 165.64-26.45 165.04-22 160.64-22 160.64-6.6Q160.64-4.2 162.69-4.2L162.69-4.2Q163.34-4.2 163.84-4.38 164.34-4.55 165.14-5L165.14-5ZM177.18-27.15Q181.88-27.15 185.13-24.05L185.13-24.05 182.78-20.7Q181.38-21.7 180.13-22.2 178.88-22.7 177.58-22.7L177.58-22.7Q176.13-22.7 175.31-21.93 174.48-21.15 174.48-19.8L174.48-19.8Q174.48-18.45 175.41-17.63 176.33-16.8 179.13-15.7L179.13-15.7Q182.58-14.35 184.23-12.5 185.88-10.65 185.88-7.55L185.88-7.55Q185.88-3.7 183.18-1.48 180.48 0.75 176.33 0.75L176.33 0.75Q173.63 0.75 171.36-0.23 169.08-1.2 167.38-2.95L167.38-2.95 170.38-6.25Q173.18-3.8 176.08-3.8L176.08-3.8Q177.73-3.8 178.68-4.67 179.63-5.55 179.63-7.1L179.63-7.1Q179.63-8.25 179.23-8.97 178.83-9.7 177.83-10.33 176.83-10.95 174.83-11.7L174.83-11.7Q171.38-13.05 169.91-14.85 168.43-16.65 168.43-19.45L168.43-19.45Q168.43-22.8 170.81-24.98 173.18-27.15 177.18-27.15L177.18-27.15Z"
                                                                                            opacity="1"
                                                                                            transform="matrix(1,0,0,1,0,0)"
                                                                                            fill="#77d4fc"
                                                                                            class="slogan-text-1"
                                                                                            data-fill-palette-color="secondary"
                                                                                            id="text-1"></path>
                                                                                    </svg></g>
                                                                            </svg>
                                                                        </g>
                                                                    </svg></g>
                                                            </svg></g>
                                                        <g
                                                            transform="matrix(1,0,0,1,418.84975608041447,20.700161648584412)">
                                                            <svg viewBox="0 0 139.32587519999998 139.32587519999998"
                                                                height="139.32587519999998" width="139.32587519999998">
                                                                <g><svg xmlns="http://www.w3.org/2000/svg"
                                                                        xmlns:xlink="http://www.w3.org/1999/xlink"
                                                                        version="1.1" x="0" y="0" viewBox="10 10 80 80"
                                                                        enable-background="new 0 0 100 100"
                                                                        xml:space="preserve" height="139.32587519999998"
                                                                        width="139.32587519999998" class="icon-icon-0"
                                                                        data-fill-palette-color="accent" id="icon-0">
                                                                        <path
                                                                            d="M83.999 33.667c2.758 0 5.001 2.244 5.001 5.001 0 2.756-2.243 4.999-5.001 4.999-2.757 0-4.999-2.243-4.999-4.999C79 35.91 81.242 33.667 83.999 33.667M83.999 32.667c-3.308 0-5.999 2.691-5.999 6.001 0 3.308 2.691 5.999 5.999 5.999 3.309 0 6.001-2.691 6.001-5.999C90 35.358 87.308 32.667 83.999 32.667L83.999 32.667z"
                                                                            fill="#77d4fc"
                                                                            data-fill-palette-color="accent"></path>
                                                                        <path
                                                                            d="M83.999 11C86.757 11 89 13.244 89 16.001 89 18.757 86.757 21 83.999 21 81.242 21 79 18.757 79 16.001 79 13.244 81.242 11 83.999 11M83.999 10C80.691 10 78 12.691 78 16.001 78 19.309 80.691 22 83.999 22 87.308 22 90 19.309 90 16.001 90 12.691 87.308 10 83.999 10L83.999 10z"
                                                                            fill="#77d4fc"
                                                                            data-fill-palette-color="accent"></path>
                                                                        <path
                                                                            d="M61.332 56.333c2.758 0 5.001 2.243 5.001 5.001 0 2.757-2.243 4.999-5.001 4.999-2.757 0-4.999-2.242-4.999-4.999C56.333 58.576 58.575 56.333 61.332 56.333M61.332 55.333c-3.308 0-5.999 2.692-5.999 6.001 0 3.308 2.691 5.999 5.999 5.999 3.309 0 6.001-2.691 6.001-5.999C67.333 58.025 64.641 55.333 61.332 55.333L61.332 55.333z"
                                                                            fill="#77d4fc"
                                                                            data-fill-palette-color="accent"></path>
                                                                        <path
                                                                            d="M61.332 79c2.758 0 5.001 2.243 5.001 5.001 0 2.757-2.243 4.999-5.001 4.999-2.757 0-4.999-2.242-4.999-4.999C56.333 81.243 58.575 79 61.332 79M61.332 78c-3.308 0-5.999 2.691-5.999 6.001 0 3.308 2.691 5.999 5.999 5.999 3.309 0 6.001-2.691 6.001-5.999C67.333 80.691 64.641 78 61.332 78L61.332 78z"
                                                                            fill="#77d4fc"
                                                                            data-fill-palette-color="accent"></path>
                                                                        <path
                                                                            d="M61.332 11c2.758 0 5.001 2.244 5.001 5.001 0 2.756-2.243 4.999-5.001 4.999-2.757 0-4.999-2.243-4.999-4.999C56.333 13.244 58.575 11 61.332 11M61.332 10c-3.308 0-5.999 2.691-5.999 6.001 0 3.308 2.691 5.999 5.999 5.999 3.309 0 6.001-2.691 6.001-5.999C67.333 12.691 64.641 10 61.332 10L61.332 10z"
                                                                            fill="#77d4fc"
                                                                            data-fill-palette-color="accent"></path>
                                                                        <path
                                                                            d="M38.666 79c2.757 0 5.001 2.243 5.001 5.001 0 2.757-2.244 4.999-5.001 4.999-2.756 0-4.999-2.242-4.999-4.999C33.667 81.243 35.909 79 38.666 79M38.666 78c-3.308 0-5.999 2.691-5.999 6.001 0 3.308 2.691 5.999 5.999 5.999 3.309 0 6.001-2.691 6.001-5.999C44.667 80.691 41.974 78 38.666 78L38.666 78z"
                                                                            fill="#77d4fc"
                                                                            data-fill-palette-color="accent"></path>
                                                                        <path
                                                                            d="M38.666 33.667c2.757 0 5.001 2.244 5.001 5.001 0 2.756-2.244 4.999-5.001 4.999-2.756 0-4.999-2.243-4.999-4.999C33.667 35.91 35.909 33.667 38.666 33.667M38.666 32.667c-3.308 0-5.999 2.691-5.999 6.001 0 3.308 2.691 5.999 5.999 5.999 3.309 0 6.001-2.691 6.001-5.999C44.667 35.358 41.974 32.667 38.666 32.667L38.666 32.667z"
                                                                            fill="#77d4fc"
                                                                            data-fill-palette-color="accent"></path>
                                                                        <path
                                                                            d="M38.666 11c2.757 0 5.001 2.244 5.001 5.001 0 2.756-2.244 4.999-5.001 4.999-2.756 0-4.999-2.243-4.999-4.999C33.667 13.244 35.909 11 38.666 11M38.666 10c-3.308 0-5.999 2.691-5.999 6.001 0 3.308 2.691 5.999 5.999 5.999 3.309 0 6.001-2.691 6.001-5.999C44.667 12.691 41.974 10 38.666 10L38.666 10z"
                                                                            fill="#77d4fc"
                                                                            data-fill-palette-color="accent"></path>
                                                                        <path
                                                                            d="M15.999 56.333c2.757 0 5.001 2.243 5.001 5.001 0 2.757-2.244 4.999-5.001 4.999-2.756 0-4.999-2.242-4.999-4.999C11 58.576 13.243 56.333 15.999 56.333M15.999 55.333c-3.308 0-5.999 2.692-5.999 6.001 0 3.308 2.691 5.999 5.999 5.999 3.309 0 6.001-2.691 6.001-5.999C22 58.025 19.308 55.333 15.999 55.333L15.999 55.333z"
                                                                            fill="#77d4fc"
                                                                            data-fill-palette-color="accent"></path>
                                                                        <path
                                                                            d="M15.999 79C18.756 79 21 81.243 21 84.001 21 86.758 18.756 89 15.999 89 13.243 89 11 86.758 11 84.001 11 81.243 13.243 79 15.999 79M15.999 78C12.691 78 10 80.691 10 84.001 10 87.309 12.691 90 15.999 90 19.308 90 22 87.309 22 84.001 22 80.691 19.308 78 15.999 78L15.999 78z"
                                                                            fill="#77d4fc"
                                                                            data-fill-palette-color="accent"></path>
                                                                        <path
                                                                            d="M84.5 78.025V67.308c3.074-0.256 5.5-2.835 5.5-5.974 0-3.309-2.692-6.001-6.001-6.001-1.474 0-2.823 0.537-3.869 1.423L65.91 42.537c0.886-1.045 1.423-2.395 1.423-3.869 0-3.31-2.692-6.001-6.001-6.001-3.308 0-5.999 2.691-5.999 6.001 0 1.474 0.537 2.824 1.423 3.87l-14.22 14.219c-1.046-0.886-2.396-1.423-3.871-1.423-1.474 0-2.824 0.537-3.87 1.423L20.577 42.537C21.463 41.492 22 40.142 22 38.667c0-3.141-2.426-5.72-5.501-5.976V21.975C19.574 21.719 22 19.14 22 16.001 22 12.691 19.308 10 15.999 10 12.691 10 10 12.691 10 16.001c0 3.139 2.425 5.718 5.499 5.974v10.717C12.425 32.947 10 35.527 10 38.667c0 3.308 2.691 5.999 5.999 5.999 1.475 0 2.825-0.537 3.871-1.422l14.22 14.219c-0.886 1.046-1.423 2.396-1.423 3.871 0 3.308 2.691 5.999 5.999 5.999 3.309 0 6.001-2.691 6.001-5.999 0-1.475-0.537-2.825-1.423-3.871l14.22-14.219c1.045 0.885 2.395 1.422 3.869 1.422s2.825-0.537 3.871-1.423l14.22 14.219C78.537 58.509 78 59.859 78 61.334c0 3.139 2.426 5.719 5.5 5.974v10.718C80.426 78.28 78 80.86 78 84.001 78 87.309 80.691 90 83.999 90 87.308 90 90 87.309 90 84.001 90 80.86 87.574 78.281 84.5 78.025z"
                                                                            fill="#77d4fc"
                                                                            data-fill-palette-color="accent"></path>
                                                                    </svg></g>
                                                            </svg>
                                                        </g>
                                                    </svg></g>
                                            </svg></g>
                                    </svg></g>
                                <defs></defs>
                            </svg>
                            <rect width="395.52" height="128.06153121666807" fill="none" stroke="none"
                                visibility="hidden"></rect>
                        </g>
                    </svg></g>
            </g>
        </g>
    </g>
    <rect width="292.2470079496811" height="82.02542628527124" x="117.24806444920068" y="130.9692529975103" rx="2.5"
        ry="2.5" fill="transparent" class="logo-element-hover-target"></rect>
    <rect width="185.04349665851316" height="53.50473377304098" x="224.45014250458632" y="217.52603029177953" rx="2.5"
        ry="2.5" fill="transparent" class="logo-element-hover-target"></rect>
    <rect width="110.72564864156539" height="110.72549508058881" x="414.0344085786669" y="145.63726099087097" rx="2.5"
        ry="2.5" fill="transparent" class="logo-element-hover-target"></rect>
</svg>